<svg xmlns="http://www.w3.org/2000/svg" viewBox="0 0 800 600" width="800" height="600" role="img" aria-label="Vườn sau nhà">
<defs><linearGradient id="troi" x1="0" y1="0" x2="0" y2="1"><stop offset="0" stop-color="#F7E6D0"/><stop offset="1" stop-color="#E5C3A6"/></linearGradient><linearGradient id="nuoc" x1="0" y1="0" x2="0" y2="1"><stop offset="0" stop-color="#2E757A"/><stop offset="1" stop-color="#12484F"/></linearGradient><linearGradient id="co" x1="0" y1="0" x2="0" y2="1"><stop offset="0" stop-color="#478161"/><stop offset="1" stop-color="#2C5E46"/></linearGradient></defs><rect width="800" height="600" fill="url(#troi)"/><circle cx="180" cy="130" r="95" fill="#FAEBD2" opacity=".38"/><circle cx="180" cy="130" r="56" fill="#FAEBD2"/><path d="M0 330 Q112 296 240 322 T464 318 Q592 290 704 324 T800 314 L800 400 L0 400Z" fill="#89AC96" opacity=".8"/><path d="M0 360 Q192 330 400 354 T800 342 L800 600 L0 600Z" fill="url(#co)"/><g fill="#3C7A5F"><rect x="611" y="300" width="17" height="91" fill="#5C3E29"/><circle cx="620" cy="286" r="96"/><circle cx="560" cy="312" r="65"/><circle cx="678" cy="305" r="58"/></g><g fill="#1F5449"><rect x="694" y="350" width="12" height="63" fill="#5C3E29"/><circle cx="700" cy="340" r="66"/><circle cx="659" cy="358" r="45"/><circle cx="740" cy="353" r="40"/></g><polygon points="182,250 325,160 468,250" fill="#6B4A32"/><polygon points="182,250 325,160 325,250" fill="#8A6240"/><rect x="200" y="250" width="250" height="118" fill="#F6EADA"/><rect x="200" y="250" width="250" height="118" fill="none" stroke="#6B4A32" stroke-width="4.5"/><rect x="230" y="276" width="60" height="52" fill="#0E5C63"/><rect x="360" y="276" width="60" height="52" fill="#0E5C63"/><rect x="215" y="368" width="12" height="40" fill="#5C3E29"/><rect x="422" y="368" width="12" height="40" fill="#5C3E29"/><path d="M86 520 l7 32 h53 l7 -32z" fill="#A83E1E"/><circle cx="120" cy="496" r="27" fill="#3C7A5F"/><circle cx="101" cy="508" r="17" fill="#1F5449"/><circle cx="138" cy="506" r="16" fill="#1F5449"/><path d="M170 540 l6 25 h41 l6 -25z" fill="#A83E1E"/><circle cx="196" cy="522" r="20" fill="#3C7A5F"/><circle cx="182" cy="531" r="13" fill="#1F5449"/><circle cx="210" cy="530" r="12" fill="#1F5449"/><path d="M300 600 Q400 500 520 430" stroke="#DCC9AE" stroke-width="64" fill="none" stroke-linecap="round"/>
</svg>
