<svg xmlns="http://www.w3.org/2000/svg" viewBox="0 0 800 600" width="800" height="600" role="img" aria-label="Ban công hướng vườn">
<defs><linearGradient id="troi" x1="0" y1="0" x2="0" y2="1"><stop offset="0" stop-color="#F7E6D0"/><stop offset="1" stop-color="#E5C3A6"/></linearGradient><linearGradient id="nuoc" x1="0" y1="0" x2="0" y2="1"><stop offset="0" stop-color="#2E757A"/><stop offset="1" stop-color="#12484F"/></linearGradient><linearGradient id="co" x1="0" y1="0" x2="0" y2="1"><stop offset="0" stop-color="#478161"/><stop offset="1" stop-color="#2C5E46"/></linearGradient></defs><rect width="800" height="600" fill="url(#troi)"/><circle cx="620" cy="120" r="102" fill="#FAEBD2" opacity=".38"/><circle cx="620" cy="120" r="60" fill="#FAEBD2"/><path d="M0 300 Q112 266 240 292 T464 288 Q592 260 704 294 T800 284 L800 370 L0 370Z" fill="#89AC96" opacity=".8"/><path d="M0 344 Q192 314 400 338 T800 326 L800 600 L0 600Z" fill="url(#co)"/><g fill="#3C7A5F"><rect x="162" y="236" width="16" height="86" fill="#5C3E29"/><circle cx="170" cy="222" r="90"/><circle cx="114" cy="247" r="61"/><circle cx="224" cy="240" r="54"/></g><g fill="#1F5449"><rect x="648" y="276" width="13" height="66" fill="#5C3E29"/><circle cx="654" cy="266" r="70"/><circle cx="611" cy="284" r="48"/><circle cx="696" cy="280" r="42"/></g><rect y="432" width="800" height="168" fill="#DCC9AE"/><rect y="420" width="800" height="14" fill="#8A6240"/><rect y="330" width="800" height="12" fill="#8A6240"/><rect x="34" y="342" width="10" height="78" fill="#8A6240"/><rect x="126" y="342" width="10" height="78" fill="#8A6240"/><rect x="218" y="342" width="10" height="78" fill="#8A6240"/><rect x="310" y="342" width="10" height="78" fill="#8A6240"/><rect x="402" y="342" width="10" height="78" fill="#8A6240"/><rect x="494" y="342" width="10" height="78" fill="#8A6240"/><rect x="586" y="342" width="10" height="78" fill="#8A6240"/><rect x="678" y="342" width="10" height="78" fill="#8A6240"/><rect x="770" y="342" width="10" height="78" fill="#8A6240"/><rect x="214" y="405" width="14" height="90" rx="4" fill="#5C3E29"/><rect x="214" y="486" width="130" height="12" rx="3" fill="#8A6240"/><rect x="222" y="498" width="12" height="75" fill="#5C3E29"/><rect x="323" y="498" width="12" height="75" fill="#5C3E29"/><rect x="395" y="482" width="9" height="130" fill="#6E4E34"/><rect x="528" y="482" width="9" height="130" fill="#6E4E34"/><rect x="372" y="466" width="190" height="16" rx="3" fill="#8A6240"/><rect x="382" y="482" width="10" height="130" fill="#5C3E29"/><rect x="542" y="482" width="10" height="130" fill="#5C3E29"/><path d="M638 566 l8 36 h59 l8 -36z" fill="#A83E1E"/><circle cx="676" cy="539" r="30" fill="#3C7A5F"/><circle cx="655" cy="553" r="19" fill="#1F5449"/><circle cx="696" cy="551" r="17" fill="#1F5449"/>
</svg>
