<svg xmlns="http://www.w3.org/2000/svg" viewBox="0 0 800 600" width="800" height="600" role="img" aria-label="Bến sông">
<defs><linearGradient id="troi" x1="0" y1="0" x2="0" y2="1"><stop offset="0" stop-color="#F7E6D0"/><stop offset="1" stop-color="#E5C3A6"/></linearGradient><linearGradient id="nuoc" x1="0" y1="0" x2="0" y2="1"><stop offset="0" stop-color="#2E757A"/><stop offset="1" stop-color="#12484F"/></linearGradient><linearGradient id="co" x1="0" y1="0" x2="0" y2="1"><stop offset="0" stop-color="#478161"/><stop offset="1" stop-color="#2C5E46"/></linearGradient></defs><rect width="800" height="600" fill="url(#troi)"/><circle cx="600" cy="120" r="112" fill="#FAEBD2" opacity=".38"/><circle cx="600" cy="120" r="66" fill="#FAEBD2"/><path d="M0 296 Q112 262 240 288 T464 284 Q592 256 704 290 T800 280 L800 366 L0 366Z" fill="#89AC96" opacity=".8"/><rect y="336" width="800" height="264" fill="url(#nuoc)"/><line x1="48" y1="394" x2="272" y2="394" stroke="#FAEBD2" stroke-width="5" stroke-linecap="round" opacity=".26"/><line x1="400" y1="442" x2="688" y2="442" stroke="#FAEBD2" stroke-width="5" stroke-linecap="round" opacity=".26"/><line x1="160" y1="500" x2="576" y2="500" stroke="#FAEBD2" stroke-width="5" stroke-linecap="round" opacity=".26"/><line x1="336" y1="558" x2="760" y2="558" stroke="#FAEBD2" stroke-width="5" stroke-linecap="round" opacity=".26"/><g fill="#1F5449"><path d="M102 348c-12-127 5-184 37-218l23 12c-28 64-39 129-30 207z"/><ellipse cx="110" cy="118" rx="78" ry="17" transform="rotate(-26 110 118)"/><ellipse cx="110" cy="118" rx="78" ry="17" transform="rotate(26 110 118)"/><ellipse cx="110" cy="118" rx="71" ry="16" transform="rotate(-70 110 118)"/><ellipse cx="110" cy="118" rx="71" ry="16" transform="rotate(70 110 118)"/><ellipse cx="110" cy="118" rx="69" ry="14" transform="rotate(0 110 118)"/></g><rect x="330" y="352" width="14" height="118" fill="#5C3E29"/><rect x="404" y="352" width="14" height="118" fill="#5C3E29"/><rect x="478" y="352" width="14" height="118" fill="#5C3E29"/><rect x="552" y="352" width="14" height="118" fill="#5C3E29"/><rect x="626" y="352" width="14" height="118" fill="#5C3E29"/><rect x="318" y="334" width="400" height="20" fill="#8A6240"/><g><path d="M150 470 q61 29 170 0 l-22 29 q-59 19 -122 0z" fill="#5C3E29"/><path d="M189 458 q44 -22 85 0" stroke="#A83E1E" stroke-width="6" fill="none" stroke-linecap="round"/></g>
</svg>
