<svg xmlns="http://www.w3.org/2000/svg" viewBox="0 0 1600 900" width="1600" height="900" role="img" aria-label="Nhà sàn Homestay TVH bên sông, hàng dừa và chiếc xuồng nhỏ">
<defs><linearGradient id="troi" x1="0" y1="0" x2="0" y2="1"><stop offset="0" stop-color="#F7E6D0"/><stop offset="1" stop-color="#E5C3A6"/></linearGradient><linearGradient id="nuoc" x1="0" y1="0" x2="0" y2="1"><stop offset="0" stop-color="#2E757A"/><stop offset="1" stop-color="#12484F"/></linearGradient><linearGradient id="co" x1="0" y1="0" x2="0" y2="1"><stop offset="0" stop-color="#478161"/><stop offset="1" stop-color="#2C5E46"/></linearGradient></defs><rect width="1600" height="900" fill="url(#troi)"/><circle cx="1150" cy="300" r="143" fill="#FAEBD2" opacity=".38"/><circle cx="1150" cy="300" r="84" fill="#FAEBD2"/><path d="M0 545 Q224 511 480 537 T928 533 Q1184 505 1408 539 T1600 529 L1600 615 L0 615Z" fill="#89AC96" opacity=".8"/><g fill="#1F5449"><path d="M242 620c-16-182 7-264 53-314l33 16c-40 92-56 185-43 297z"/><ellipse cx="250" cy="290" rx="112" ry="25" transform="rotate(-26 250 290)"/><ellipse cx="250" cy="290" rx="112" ry="25" transform="rotate(26 250 290)"/><ellipse cx="250" cy="290" rx="102" ry="22" transform="rotate(-70 250 290)"/><ellipse cx="250" cy="290" rx="102" ry="22" transform="rotate(70 250 290)"/><ellipse cx="250" cy="290" rx="99" ry="20" transform="rotate(0 250 290)"/></g><g fill="#1F5449"><path d="M422 625c-12-129 5-188 38-223l24 12c-28 66-40 132-31 212z"/><ellipse cx="430" cy="390" rx="80" ry="18" transform="rotate(-26 430 390)"/><ellipse cx="430" cy="390" rx="80" ry="18" transform="rotate(26 430 390)"/><ellipse cx="430" cy="390" rx="73" ry="16" transform="rotate(-70 430 390)"/><ellipse cx="430" cy="390" rx="73" ry="16" transform="rotate(70 430 390)"/><ellipse cx="430" cy="390" rx="70" ry="14" transform="rotate(0 430 390)"/></g><polygon points="847,400 1115,231 1383,400" fill="#6B4A32"/><polygon points="847,400 1115,231 1115,400" fill="#8A6240"/><rect x="880" y="400" width="470" height="200" fill="#F6EADA"/><rect x="880" y="400" width="470" height="200" fill="none" stroke="#6B4A32" stroke-width="8.5"/><rect x="936" y="444" width="113" height="88" fill="#0E5C63"/><rect x="1181" y="444" width="113" height="88" fill="#0E5C63"/><rect x="908" y="600" width="24" height="68" fill="#5C3E29"/><rect x="1298" y="600" width="24" height="68" fill="#5C3E29"/><rect y="622" width="1600" height="278" fill="url(#nuoc)"/><line x1="96" y1="683" x2="544" y2="683" stroke="#FAEBD2" stroke-width="7" stroke-linecap="round" opacity=".26"/><line x1="800" y1="733" x2="1376" y2="733" stroke="#FAEBD2" stroke-width="7" stroke-linecap="round" opacity=".26"/><line x1="320" y1="794" x2="1152" y2="794" stroke="#FAEBD2" stroke-width="7" stroke-linecap="round" opacity=".26"/><line x1="672" y1="856" x2="1520" y2="856" stroke="#FAEBD2" stroke-width="7" stroke-linecap="round" opacity=".26"/><g><path d="M640 706 q90 42 250 0 l-32 42 q-88 28 -180 0z" fill="#5C3E29"/><path d="M698 688 q65 -32 125 0" stroke="#A83E1E" stroke-width="9" fill="none" stroke-linecap="round"/></g>
</svg>
