<svg xmlns="http://www.w3.org/2000/svg" viewBox="0 0 960 540" width="960" height="540" role="img" aria-label="Đi Trà Vinh mùa nào đẹp">
<defs><linearGradient id="troi" x1="0" y1="0" x2="0" y2="1"><stop offset="0" stop-color="#F7E6D0"/><stop offset="1" stop-color="#E5C3A6"/></linearGradient><linearGradient id="nuoc" x1="0" y1="0" x2="0" y2="1"><stop offset="0" stop-color="#2E757A"/><stop offset="1" stop-color="#12484F"/></linearGradient><linearGradient id="co" x1="0" y1="0" x2="0" y2="1"><stop offset="0" stop-color="#478161"/><stop offset="1" stop-color="#2C5E46"/></linearGradient></defs><rect width="960" height="540" fill="url(#troi)"/><circle cx="760" cy="130" r="122" fill="#FAEBD2" opacity=".38"/><circle cx="760" cy="130" r="72" fill="#FAEBD2"/><path d="M0 300 Q134 266 288 292 T557 288 Q710 260 845 294 T960 284 L960 370 L0 370Z" fill="#89AC96" opacity=".8"/><path d="M0 340 Q230 310 480 334 T960 322 L960 540 L0 540Z" fill="url(#co)"/><g fill="#1F5449"><path d="M152 420c-14-154 6-224 45-266l28 14c-34 78-48 157-36 252z"/><ellipse cx="160" cy="140" rx="95" ry="21" transform="rotate(-26 160 140)"/><ellipse cx="160" cy="140" rx="95" ry="21" transform="rotate(26 160 140)"/><ellipse cx="160" cy="140" rx="87" ry="19" transform="rotate(-70 160 140)"/><ellipse cx="160" cy="140" rx="87" ry="19" transform="rotate(70 160 140)"/><ellipse cx="160" cy="140" rx="84" ry="17" transform="rotate(0 160 140)"/></g><polygon points="543,280 680,194 817,280" fill="#6B4A32"/><polygon points="543,280 680,194 680,280" fill="#8A6240"/><rect x="560" y="280" width="240" height="110" fill="#F6EADA"/><rect x="560" y="280" width="240" height="110" fill="none" stroke="#6B4A32" stroke-width="4.3"/><rect x="589" y="304" width="58" height="48" fill="#0E5C63"/><rect x="714" y="304" width="58" height="48" fill="#0E5C63"/><rect x="574" y="390" width="12" height="37" fill="#5C3E29"/><rect x="774" y="390" width="12" height="37" fill="#5C3E29"/>
</svg>
